<svg width="24" height="24" viewBox="0 0 24 24" fill="none" xmlns="http://www.w3.org/2000/svg">
<path d="M9 6C9 6.39397 9.0776 6.78407 9.22836 7.14805C9.37913 7.51203 9.6001 7.84274 9.87868 8.12132C10.1573 8.3999 10.488 8.62087 10.852 8.77164C11.2159 8.9224 11.606 9 12 9C12.394 9 12.7841 8.9224 13.1481 8.77164C13.512 8.62087 13.8427 8.3999 14.1213 8.12132C14.3999 7.84274 14.6209 7.51203 14.7716 7.14805C14.9224 6.78407 15 6.39396 15 6C15 5.60603 14.9224 5.21593 14.7716 4.85195C14.6209 4.48797 14.3999 4.15725 14.1213 3.87868C13.8427 3.6001 13.512 3.37912 13.148 3.22836C12.7841 3.0776 12.394 3 12 3C11.606 3 11.2159 3.0776 10.8519 3.22836C10.488 3.37913 10.1573 3.6001 9.87868 3.87868C9.6001 4.15726 9.37912 4.48797 9.22836 4.85195C9.0776 5.21593 9 5.60604 9 6L9 6Z" stroke="white" stroke-width="2"/>
<path d="M4.43781 13.9015C4.09663 14.0985 3.79758 14.3607 3.55775 14.6733C3.31792 14.9858 3.142 15.3426 3.04004 15.7231C2.93807 16.1037 2.91206 16.5006 2.96348 16.8912C3.0149 17.2818 3.14275 17.6584 3.33974 17.9996C3.53672 18.3408 3.79897 18.6398 4.11153 18.8796C4.42408 19.1195 4.78081 19.2954 5.16136 19.3974C5.5419 19.4993 5.9388 19.5253 6.32939 19.4739C6.71999 19.4225 7.09663 19.2946 7.43781 19.0977C7.779 18.9007 8.07804 18.6384 8.31787 18.3259C8.5577 18.0133 8.73362 17.6566 8.83559 17.276C8.93756 16.8955 8.96357 16.4986 8.91215 16.108C8.86072 15.7174 8.73287 15.3408 8.53589 14.9996C8.33891 14.6584 8.07665 14.3594 7.7641 14.1195C7.45154 13.8797 7.09481 13.7038 6.71427 13.6018C6.33373 13.4998 5.93683 13.4738 5.54623 13.5252C5.15564 13.5767 4.779 13.7045 4.43781 13.9015L4.43781 13.9015Z" stroke="white" stroke-width="2"/>
<path d="M19.5622 13.9015C19.9034 14.0985 20.2024 14.3607 20.4422 14.6733C20.6821 14.9859 20.858 15.3426 20.96 15.7231C21.0619 16.1037 21.0879 16.5006 21.0365 16.8912C20.9851 17.2818 20.8572 17.6584 20.6603 17.9996C20.4633 18.3408 20.201 18.6398 19.8885 18.8796C19.5759 19.1195 19.2192 19.2954 18.8386 19.3974C18.4581 19.4993 18.0612 19.5253 17.6706 19.4739C17.28 19.4225 16.9034 19.2946 16.5622 19.0977C16.221 18.9007 15.922 18.6384 15.6821 18.3259C15.4423 18.0133 15.2664 17.6566 15.1644 17.276C15.0624 16.8955 15.0364 16.4986 15.0879 16.108C15.1393 15.7174 15.2671 15.3408 15.4641 14.9996C15.6611 14.6584 15.9234 14.3594 16.2359 14.1195C16.5485 13.8797 16.9052 13.7038 17.2857 13.6018C17.6663 13.4998 18.0632 13.4738 18.4538 13.5252C18.8444 13.5767 19.221 13.7045 19.5622 13.9015L19.5622 13.9015Z" stroke="white" stroke-width="2"/>
<path d="M16.04 18.7139C16.1997 18.8597 16.3743 18.989 16.5625 19.0977C16.9036 19.2946 17.2804 19.4232 17.6709 19.4746C17.8562 19.499 18.0428 19.5035 18.2285 19.4932C17.4215 20.2673 16.4785 20.886 15.4443 21.3145C14.3524 21.7667 13.1819 22 12 22C10.8181 22 9.64759 21.7667 8.55566 21.3145C7.5213 20.8859 6.57766 20.2675 5.77051 19.4932C5.95653 19.5036 6.14349 19.499 6.3291 19.4746C6.71968 19.4232 7.09633 19.2946 7.4375 19.0977C7.62547 18.9891 7.79945 18.8595 7.95898 18.7139C8.38312 19.0135 8.83926 19.2671 9.32129 19.4668C10.1706 19.8186 11.0807 20 12 20C12.9193 20 13.8294 19.8186 14.6787 19.4668C15.1605 19.2672 15.6161 19.0133 16.04 18.7139ZM9.49023 4.35938C9.38842 4.5151 9.30006 4.67982 9.22852 4.85254C9.07784 5.21638 9.00004 5.6062 9 6C9 6.21694 9.02497 6.43268 9.07129 6.64355C8.32046 6.98931 7.63532 7.46433 7.0498 8.0498C6.39988 8.69973 5.88498 9.47214 5.5332 10.3213C5.18146 11.1705 5.00004 12.0809 5 13C5 13.2148 5.0106 13.4294 5.03027 13.6426C4.82462 13.7079 4.62526 13.793 4.4375 13.9014C4.09632 14.0983 3.79745 14.3613 3.55762 14.6738C3.44366 14.8224 3.34476 14.9812 3.26074 15.1475C3.08838 14.4463 3 13.7252 3 13C3.00004 11.8182 3.23329 10.6475 3.68555 9.55566C4.13783 8.46396 4.80016 7.47132 5.63574 6.63574C6.47136 5.80017 7.46393 5.13781 8.55566 4.68555C8.86133 4.55894 9.17373 4.45134 9.49023 4.35938ZM14.5088 4.35938C14.8256 4.4514 15.1384 4.55882 15.4443 4.68555C16.5361 5.13781 17.5286 5.80017 18.3643 6.63574C19.1998 7.47132 19.8622 8.46396 20.3145 9.55566C20.7667 10.6475 21 11.8182 21 13C21 13.7253 20.9107 14.4463 20.7383 15.1475C20.6543 14.9813 20.5562 14.8222 20.4424 14.6738C20.2026 14.3613 19.9036 14.0983 19.5625 13.9014C19.3745 13.7928 19.1747 13.7079 18.9688 13.6426C18.9884 13.4294 19 13.2149 19 13C19 12.0808 18.8185 11.1705 18.4668 10.3213C18.115 9.47214 17.6001 8.69973 16.9502 8.0498C16.3645 7.46412 15.6789 6.98934 14.9277 6.64355C14.9741 6.43262 15 6.217 15 6C15 5.60621 14.9222 5.21636 14.7715 4.85254C14.6999 4.67968 14.6107 4.51521 14.5088 4.35938Z" fill="white"/>
</svg>
