<svg width="24" height="24" viewBox="0 0 24 24" fill="none" xmlns="http://www.w3.org/2000/svg">
<path d="M7 3C7.98142 3 8.47224 2.99979 8.89453 3.21094C9.31679 3.42207 9.61142 3.81457 10.2002 4.59961L12 7H18.7998C19.9199 7 20.4804 6.99979 20.9082 7.21777C21.2845 7.40951 21.5905 7.71554 21.7822 8.0918C22.0002 8.51962 22 9.08009 22 10.2002V17.7998C22 18.9199 22.0002 19.4804 21.7822 19.9082C21.5905 20.2845 21.2845 20.5905 20.9082 20.7822C20.4804 21.0002 19.9199 21 18.7998 21H5.2002C4.08009 21 3.51962 21.0002 3.0918 20.7822C2.71554 20.5905 2.40951 20.2845 2.21777 19.9082C1.99979 19.4804 2 18.9199 2 17.7998V7C2 5.11438 2.00015 4.17172 2.58594 3.58594C3.17172 3.00015 4.11438 3 6 3H7ZM8.29297 14.293L9.70703 15.707L11 14.4141V18H13V14.4141L14.293 15.707L15.707 14.293L12 10.5859L8.29297 14.293Z" fill="white"/>
</svg>
